<svg width="63" height="41" viewBox="0 0 63 41" fill="none" xmlns="http://www.w3.org/2000/svg">
<rect x="12" y="37" width="39" height="4" rx="2" fill="black"/>
<path d="M55.0909 25.438C55.0532 24.7201 54.3021 24.3546 53.6295 24.6084V24.6084C53.0548 24.8253 52.7082 25.4332 52.6279 26.0421C52.4612 27.3064 51.8438 29.0154 51.1225 30.0437C50.7614 30.5584 50.524 31.2432 50.7425 31.8328V31.8328C50.9908 32.5026 51.7489 32.8418 52.2946 32.3808C54.0268 30.9178 55.2164 27.8306 55.0909 25.438ZM59.21 22.9527C59.0669 22.3161 58.382 21.9997 57.7709 22.2283V22.2283C57.1856 22.4472 56.8823 23.0883 56.9848 23.7047C57.5867 27.3245 56.1096 32.5935 53.2263 34.7434C52.7236 35.1182 52.4421 35.768 52.6618 36.3553V36.3553C52.8924 36.9719 53.5855 37.2922 54.1527 36.9582C58.2519 34.5442 60.3094 27.8417 59.21 22.9527Z" fill="black"/>
<path d="M9.93623 31.7289C10.5027 32.1717 11.2714 31.8448 11.5213 31.1707V31.1707C11.7348 30.5948 11.5036 29.9343 11.0969 29.4741C10.2524 28.5186 9.36801 26.9311 9.06556 25.712C8.91417 25.1018 8.5533 24.4732 7.96507 24.2512V24.2512C7.29674 23.9989 6.5433 24.3483 6.53293 25.0626C6.5 27.3297 8.04864 30.2534 9.93623 31.7289ZM9.10817 36.4679C9.68243 36.7777 10.3706 36.4686 10.5992 35.8575V35.8575C10.8181 35.2722 10.5335 34.6226 10.0012 34.2954C6.8749 32.3739 3.8688 27.8015 4.1389 24.2151C4.186 23.5898 3.88046 22.9509 3.29314 22.7312V22.7312C2.67657 22.5006 1.98004 22.8133 1.85981 23.4606C0.990954 28.1377 4.69784 34.0889 9.10817 36.4679Z" fill="black"/>
<circle cx="31.5" cy="19.5" r="19.5" fill="black"/>
<circle cx="31.5" cy="19.5" r="17.5" fill="white"/>
<path d="M37.975 11.45V14.875H30.825V18.575H36.175V21.9H30.825V29H26.55V11.45H37.975Z" fill="black"/>
</svg>
